<svg width="0" height="0" class="hidden">
  <symbol fill="none" xmlns="http://www.w3.org/2000/svg" viewBox="0 0 14 19" id="icon-dollar">
    <path d="M12.2486 0H1.73654C0.821277 0 0.0763493 0.702774 0 1.5916C0 1.5916 0 6.81774 0 17.27C0 18.4378 0.714649 19 1.73654 19H12.2486C13.2142 19 14 18.2205 14 17.2622V1.73782C14 0.779453 13.2145 0 12.2486 0ZM13.2632 17.3865C13.2632 17.8731 12.8621 18.2692 12.3688 18.2692H1.63121C1.13792 18.2692 0.736842 17.8731 0.736842 17.3865V1.61348C0.736842 1.12662 1.13792 0.730769 1.63121 0.730769H12.3688C12.8621 0.730769 13.2632 1.12662 13.2632 1.61348V17.3865ZM9.34035 13.745C9.47158 13.745 9.57895 13.8488 9.57895 13.9757V14.3847C9.57895 14.5116 9.47158 14.6154 9.34035 14.6154H4.65965C4.52842 14.6154 4.42105 14.5116 4.42105 14.3847V13.9757C4.42105 13.8488 4.52842 13.745 4.65965 13.745H9.34035ZM6.74925 3.68307C6.88417 3.68174 7.0139 3.73272 7.10881 3.8244C7.20373 3.91608 7.25572 4.04062 7.25292 4.16959V4.80501H8.58217C8.76193 4.80259 8.92913 4.89289 9.01975 5.04134C9.11037 5.18979 9.11037 5.37338 9.01975 5.52183C8.92913 5.67027 8.76193 5.76057 8.58217 5.75815H6.25597C5.90171 5.75815 5.70899 5.84397 5.59654 5.94679C5.48409 6.04961 5.42519 6.19137 5.42519 6.39357C5.42519 6.52296 5.48529 6.64528 5.70039 6.78079C5.91548 6.91629 6.28101 7.029 6.75445 7.029C7.38415 7.02898 7.93071 7.16463 8.35371 7.4311C8.7767 7.69758 9.08064 8.13091 9.08064 8.61756C9.08064 9.07237 8.84775 9.4941 8.48352 9.77423C8.15665 10.0256 7.73125 10.1734 7.25292 10.2011V10.8415C7.25546 11.0134 7.16101 11.1733 7.00574 11.2599C6.85047 11.3466 6.65842 11.3466 6.50315 11.2599C6.34788 11.1733 6.25343 11.0134 6.25597 10.8415V10.2061H4.92672C4.74693 10.2086 4.57968 10.1183 4.48904 9.96983C4.39839 9.82137 4.39839 9.63774 4.48904 9.48928C4.57968 9.34081 4.74693 9.25052 4.92672 9.25299H7.08676C7.44101 9.25299 7.70197 9.15144 7.86043 9.02959C8.01889 8.90772 8.0837 8.7788 8.0837 8.61756C8.0837 8.48818 8.02359 8.36088 7.8085 8.22537C7.59342 8.08988 7.22787 7.98213 6.75445 7.98214C6.12474 7.98214 5.57817 7.84155 5.15518 7.57507C4.73219 7.30859 4.42825 6.88024 4.42825 6.39357C4.42825 5.97974 4.58397 5.56089 4.91114 5.26173C5.23831 4.96257 5.71018 4.80501 6.25597 4.80501V4.16959C6.25321 4.04235 6.30379 3.91933 6.39644 3.82795C6.4891 3.73656 6.61614 3.68441 6.74925 3.68307Z" fill="#4C4D5F"></path>
  </symbol>
  <symbol fill="none" xmlns="http://www.w3.org/2000/svg" viewBox="0 0 17 17" id="icon-time">
    <path d="M8.5 0C3.81323 0 0 3.81309 0 8.5C0 13.1869 3.81323 17 8.5 17C13.1868 17 17 13.1869 17 8.5C17 3.81309 13.1868 0 8.5 0ZM8.5 15.9723C4.37975 15.9723 1.02769 12.6204 1.02769 8.5C1.02769 4.37962 4.37975 1.02772 8.5 1.02772C12.6203 1.02772 15.9723 4.37962 15.9723 8.5C15.9723 12.6204 12.6203 15.9723 8.5 15.9723ZM8.5 2.85911H7.47231V9.52772H12.8677V8.5H8.5V2.85911Z" fill="#4C525A"></path>
  </symbol>
  <symbol fill="none" xmlns="http://www.w3.org/2000/svg" viewBox="0 0 14 19" id="icon-contract">
    <path d="M12.2486 0H1.73654C0.821277 0 0.0763493 0.702774 0 1.5916C0 1.5916 0 6.81774 0 17.27C0 18.4378 0.714649 19 1.73654 19H12.2486C13.2142 19 14 18.2205 14 17.2622V1.73782C14 0.779453 13.2145 0 12.2486 0ZM13.1244 17.2619C13.1244 17.7409 12.7318 18.1307 12.2488 18.1307H1.73677C1.25385 18.1307 0.861192 17.7409 0.861192 17.2619V1.73759C0.861192 1.25841 1.25385 0.868796 1.73677 0.868796H12.2488C12.7318 0.868796 13.1244 1.25841 13.1244 1.73759V17.2619Z" fill="#4C4D5F"></path>
    <path d="M11.2002 3.04004H2.80016C2.54243 3.04004 2.3335 3.2442 2.3335 3.49604C2.3335 3.74788 2.54243 3.95204 2.80016 3.95204H11.2002C11.4579 3.95204 11.6668 3.74788 11.6668 3.49604C11.6668 3.2442 11.4579 3.04004 11.2002 3.04004Z" fill="#4C4D5F"></path>
    <path d="M7.31127 6.83984H2.80016C2.54243 6.83984 2.3335 7.044 2.3335 7.29584C2.3335 7.54769 2.54243 7.75184 2.80016 7.75184H7.31127C7.56901 7.75184 7.77794 7.54769 7.77794 7.29584C7.77794 7.044 7.56901 6.83984 7.31127 6.83984Z" fill="#4C4D5F"></path>
    <path d="M11.2 15.96H7.46667C7.20893 15.96 7 16.1641 7 16.416C7 16.6678 7.20893 16.872 7.46667 16.872H11.2C11.4577 16.872 11.6667 16.6678 11.6667 16.416C11.6667 16.1641 11.4577 15.96 11.2 15.96Z" fill="#4C4D5F"></path>
    <path d="M8.86683 9.12012H2.80016C2.54243 9.12012 2.3335 9.32428 2.3335 9.57612C2.3335 9.82796 2.54243 10.0321 2.80016 10.0321H8.86683C9.12456 10.0321 9.3335 9.82796 9.3335 9.57612C9.3335 9.32428 9.12456 9.12012 8.86683 9.12012Z" fill="#4C4D5F"></path>
    <path d="M5.75572 11.3999H2.80016C2.54243 11.3999 2.3335 11.6041 2.3335 11.8559C2.3335 12.1077 2.54243 12.3119 2.80016 12.3119H5.75572C6.01345 12.3119 6.22238 12.1077 6.22238 11.8559C6.22238 11.6041 6.01345 11.3999 5.75572 11.3999Z" fill="#4C4D5F"></path>
  </symbol>
  <symbol version="1.1" xmlns="http://www.w3.org/2000/svg" xmlns:xlink="http://www.w3.org/1999/xlink" viewBox="0 0 4 6" id="icon-arrow">
    <title>Path Copy</title>
    <desc>Created with Sketch.</desc>
    <g id="Page-1" stroke="none" stroke-width="1" fill="var(--icon-color, #01B289)" fill-rule="evenodd">
      <g id="v1_A" transform="translate(-405.000000, -1441.000000)" fill="var(--icon-color, #01B289)" fill-rule="nonzero">
        <polygon id="Path-Copy" points="405.6027 1447 405 1446.39676 407.394601 1444 405 1441.60324 405.6027 1441 408.6 1444"></polygon>
      </g>
    </g>
  </symbol>
  <symbol version="1.1" xmlns="http://www.w3.org/2000/svg" xmlns:xlink="http://www.w3.org/1999/xlink" viewBox="0 0 10 7" id="icon-tick">
    <title>Path Copy 6</title>
    <desc>Created with Sketch.</desc>
    <g id="Page-1" stroke="none" stroke-width="1" fill="none" fill-rule="evenodd">
      <g id="v1_A" transform="translate(-330.000000, -883.000000)" fill="#01B289" fill-rule="nonzero">
        <g id="Group-9" transform="translate(330.000000, 630.000000)">
          <path d="M9.76036711,254.456303 L4.484493,259.761794 C4.33375374,259.91338 4.11841194,260 3.88153596,260 C3.64465998,260 3.45085235,259.91338 3.27857891,259.761794 L0.242259526,256.70843 C-0.0807531752,256.383604 -0.0807531752,255.842227 0.242259526,255.517401 C0.565272227,255.192575 1.10362673,255.192575 1.42663943,255.517401 L3.86000178,257.964424 L8.55445303,253.243619 C8.87746573,252.918794 9.41582023,252.918794 9.73883293,253.243619 C10.0833798,253.590101 10.0833798,254.109822 9.76036711,254.456303 Z" id="Path-Copy-6"></path>
        </g>
      </g>
    </g>
  </symbol>
</svg>